<svg width="17" height="20" viewBox="0 0 17 20" fill="none" xmlns="http://www.w3.org/2000/svg">
<path fill-rule="evenodd" clip-rule="evenodd" d="M11.677 7.968H4.82199C4.40799 7.968 4.07199 7.632 4.07199 7.218C4.07199 6.804 4.40799 6.468 4.82199 6.468H11.677C12.091 6.468 12.427 6.804 12.427 7.218C12.427 7.632 12.091 7.968 11.677 7.968ZM16.219 10.99L16.216 8.929C16.216 1.335 15.025 0 8.25 0C1.47499 0 0.283991 1.335 0.283991 8.929L0.280992 10.99C0.271992 16.615 0.267991 18.721 1.12699 19.58C1.40499 19.859 1.77399 20 2.22299 20C3.17799 20 4.23999 19.093 5.36499 18.132C6.361 17.281 7.49 16.317 8.25 16.317C9.01 16.317 10.139 17.281 11.135 18.132C12.26 19.093 13.322 20 14.277 20C14.726 20 15.095 19.859 15.373 19.58C16.232 18.721 16.228 16.615 16.219 10.99Z" fill="black"/>
</svg>
