<svg width="22" height="42" viewBox="0 0 22 42" fill="none" xmlns="http://www.w3.org/2000/svg">
<path d="M12.6495 26.6282V13.9863C12.6495 13.4918 12.4633 13.0175 12.1318 12.6679C11.8002 12.3182 11.3506 12.1217 10.8817 12.1217C10.4129 12.1217 9.96322 12.3182 9.63169 12.6679C9.30015 13.0175 9.1139 13.4918 9.1139 13.9863V26.6282C8.57953 26.9536 8.1352 27.4208 7.82507 27.9834C7.51494 28.5461 7.3498 29.1845 7.34608 29.8353C7.34608 30.8243 7.71858 31.7729 8.38165 32.4722C9.04471 33.1716 9.94401 33.5645 10.8817 33.5645C11.8194 33.5645 12.7187 33.1716 13.3818 32.4722C14.0449 31.7729 14.4174 30.8243 14.4174 29.8353C14.4136 29.1845 14.2485 28.5461 13.9384 27.9834C13.6282 27.4208 13.1839 26.9536 12.6495 26.6282ZM18.8369 22.377V8.39258C18.8369 6.16725 17.9988 4.03306 16.5069 2.45951C15.015 0.885963 12.9916 0.00195313 10.8817 0.00195312C8.77187 0.00195313 6.74844 0.885963 5.25655 2.45951C3.76466 4.03306 2.92652 6.16725 2.92652 8.39258V22.377C1.70468 23.8373 0.865468 25.6088 0.4919 27.5162C0.118332 29.4236 0.223351 31.4008 0.79657 33.2523C1.36979 35.1037 2.39135 36.7652 3.76019 38.0725C5.12904 39.3798 6.79774 40.2875 8.60123 40.7058C9.35042 40.8859 10.1139 40.992 10.8817 41.0228C12.9335 41.0329 14.944 40.4151 16.6696 39.2442C18.3952 38.0734 19.7618 36.3999 20.6038 34.4264C21.4458 32.4529 21.727 30.2642 21.4134 28.1255C21.0998 25.9868 20.2048 23.99 18.8369 22.377ZM15.3013 35.5596C13.8947 36.875 12.0503 37.5472 10.1739 37.4283C8.29739 37.3094 6.54256 36.4092 5.29541 34.9256C4.04825 33.442 3.41093 31.4967 3.52365 29.5175C3.63637 27.5384 4.4899 25.6875 5.89647 24.3721C6.0635 24.1994 6.19639 23.9934 6.28743 23.7662C6.37846 23.5389 6.42584 23.2949 6.42681 23.0482V8.39258C6.42681 7.15628 6.89244 5.97062 7.72127 5.09643C8.5501 4.22224 9.67423 3.73112 10.8464 3.73112C12.0185 3.73112 13.1426 4.22224 13.9715 5.09643C14.8003 5.97062 15.2659 7.15628 15.2659 8.39258V23.1974C15.2669 23.4441 15.3143 23.6881 15.4053 23.9154C15.4963 24.1426 15.6292 24.3485 15.7963 24.5212C16.5189 25.2575 17.0844 26.1477 17.4552 27.1326C17.8261 28.1175 17.9936 29.1745 17.9468 30.233C17.9 31.2916 17.6398 32.3274 17.1836 33.2716C16.7274 34.2158 16.0858 35.0466 15.3013 35.7087V35.5596Z" fill="#2D5BD0"/>
</svg>
