<svg width="40" height="39" viewBox="0 0 40 39" fill="none" xmlns="http://www.w3.org/2000/svg">
<path d="M9.26004 23.2168C9.7289 23.2168 10.1785 23.4132 10.5101 23.7629C10.8416 24.1126 11.0279 24.5869 11.0279 25.0814C11.0279 25.5759 10.8416 26.0502 10.5101 26.3998C10.1785 26.7495 9.7289 26.946 9.26004 26.946C8.09927 26.946 6.94987 26.7048 5.87746 26.2363C4.80505 25.7678 3.83063 25.0811 3.00985 24.2153C1.35219 22.467 0.420929 20.0956 0.420929 17.6231C0.420929 15.1505 1.35219 12.7791 3.00985 11.0308C4.6675 9.28236 6.91576 8.30013 9.26004 8.30013C11.0279 3.91836 15.0939 0.841797 19.867 0.841797C25.9306 0.841797 30.8982 5.80159 31.3578 12.0852L32.2417 12.0293C34.1172 12.0293 35.9158 12.8151 37.2419 14.2138C38.568 15.6125 39.313 17.5096 39.313 19.4876C39.313 21.4657 38.568 23.3628 37.2419 24.7615C35.9158 26.1602 34.1172 26.946 32.2417 26.946H30.4739C30.0051 26.946 29.5554 26.7495 29.2239 26.3998C28.8923 26.0502 28.7061 25.5759 28.7061 25.0814C28.7061 24.5869 28.8923 24.1126 29.2239 23.7629C29.5554 23.4132 30.0051 23.2168 30.4739 23.2168H32.2417C33.1794 23.2168 34.0788 22.8239 34.7418 22.1246C35.4049 21.4252 35.7774 20.4767 35.7774 19.4876C35.7774 18.4986 35.4049 17.5501 34.7418 16.8507C34.0788 16.1514 33.1794 15.7585 32.2417 15.7585H28.7061V13.8939C28.7061 11.4213 27.7748 9.04997 26.1172 7.30158C24.4595 5.5532 22.2113 4.57096 19.867 4.57096C15.4474 4.57096 11.8234 7.96451 11.1339 12.3836C10.5506 12.1598 9.91414 12.0293 9.26004 12.0293C7.85348 12.0293 6.50452 12.6186 5.50992 13.6677C4.51533 14.7167 3.95657 16.1395 3.95657 17.6231C3.95657 19.1066 4.51533 20.5294 5.50992 21.5784C6.50452 22.6275 7.85348 23.2168 9.26004 23.2168ZM16.3313 30.6751C17.269 30.6751 18.1683 31.068 18.8314 31.7674C19.4945 32.4667 19.867 33.4153 19.867 34.4043C19.867 35.3933 19.4945 36.3419 18.8314 37.0412C18.1683 37.7406 17.269 38.1335 16.3313 38.1335C15.3936 38.1335 14.4943 37.7406 13.8313 37.0412C13.1682 36.3419 12.7957 35.3933 12.7957 34.4043C12.7957 33.4153 13.1682 32.4667 13.8313 31.7674C14.4943 31.068 15.3936 30.6751 16.3313 30.6751ZM24.2865 26.946C24.9898 26.946 25.6643 27.2406 26.1616 27.7652C26.6589 28.2897 26.9383 29.0011 26.9383 29.7428C26.9383 30.4846 26.6589 31.196 26.1616 31.7205C25.6643 32.245 24.9898 32.5397 24.2865 32.5397C23.5833 32.5397 22.9088 32.245 22.4115 31.7205C21.9142 31.196 21.6348 30.4846 21.6348 29.7428C21.6348 29.0011 21.9142 28.2897 22.4115 27.7652C22.9088 27.2406 23.5833 26.946 24.2865 26.946ZM17.2152 19.4876C17.9185 19.4876 18.593 19.7823 19.0903 20.3068C19.5876 20.8313 19.867 21.5427 19.867 22.2845C19.867 23.0263 19.5876 23.7377 19.0903 24.2622C18.593 24.7867 17.9185 25.0814 17.2152 25.0814C16.512 25.0814 15.8375 24.7867 15.3402 24.2622C14.8429 23.7377 14.5635 23.0263 14.5635 22.2845C14.5635 21.5427 14.8429 20.8313 15.3402 20.3068C15.8375 19.7823 16.512 19.4876 17.2152 19.4876Z" fill="#2D5BD0"/>
</svg>
