<svg width="15" height="20" viewBox="0 0 15 20" fill="none" xmlns="http://www.w3.org/2000/svg">
<path d="M4.03162 0.936771C6.21648 -0.332726 8.90203 -0.310537 11.0664 0.994894C13.2095 2.32691 14.512 4.70418 14.4999 7.26144C14.45 9.80194 13.0533 12.19 11.3075 14.0361C10.2998 15.1064 9.17261 16.0528 7.94884 16.856C7.82281 16.9289 7.68475 16.9777 7.54148 17C7.4036 16.9941 7.26932 16.9534 7.15075 16.8814C5.28243 15.6746 3.64333 14.134 2.31233 12.334C1.19859 10.8314 0.565835 9.01601 0.5 7.13442L0.504986 6.86069C0.595922 4.40464 1.9248 2.16093 4.03162 0.936771ZM8.40726 5.03477C7.51907 4.65723 6.49504 4.86235 5.81332 5.55435C5.13159 6.24635 4.92664 7.28872 5.29416 8.19478C5.66168 9.10084 6.52918 9.69184 7.4916 9.69185C8.1221 9.69638 8.72819 9.44383 9.17481 8.99048C9.62143 8.53712 9.87148 7.92064 9.86926 7.27838C9.87261 6.29804 9.29546 5.41231 8.40726 5.03477Z" fill="white"/>
<path opacity="0.4" d="M7.5 20C10.2614 20 12.5 19.5523 12.5 19C12.5 18.4477 10.2614 18 7.5 18C4.73858 18 2.5 18.4477 2.5 19C2.5 19.5523 4.73858 20 7.5 20Z" fill="white"/>
</svg>
