<svg width="40" height="40" viewBox="0 0 40 40" fill="none" xmlns="http://www.w3.org/2000/svg">
<path fill-rule="evenodd" clip-rule="evenodd" d="M28.7667 14.4567C26.0233 14.4567 23.7833 12.2333 23.7833 9.49V6.08667L32.5867 14.4567H28.7667ZM23.48 27.1533H14.4816C13.7916 27.1533 13.2316 26.5933 13.2316 25.9033C13.2316 25.2133 13.7916 24.6533 14.4816 24.6533H23.48C24.1717 24.6533 24.73 25.2133 24.73 25.9033C24.73 26.5933 24.1717 27.1533 23.48 27.1533ZM14.4783 17.9683H20.0717C20.7617 17.9683 21.3217 18.5283 21.3217 19.2183C21.3217 19.91 20.7617 20.4683 20.0717 20.4683H14.4783C13.7883 20.4683 13.2283 19.91 13.2283 19.2183C13.2283 18.5283 13.7883 17.9683 14.4783 17.9683ZM34.925 14.75C34.925 14.6833 34.925 14.6333 34.9083 14.5667C34.8583 14.2667 34.8083 13.9667 34.7583 13.6833C34.725 13.5 34.6417 13.35 34.5083 13.2167L25.0583 4.21667C24.9417 4.1 24.775 4.01667 24.6083 4C24.325 3.96667 24.025 3.93333 23.725 3.9C23.675 3.88333 23.6083 3.88333 23.5583 3.88333C22.5917 3.8 21.525 3.75 20.4083 3.75C9.47498 3.75 5.59164 8 5.59164 20C5.59164 31.9833 9.47498 36.25 20.4083 36.25C31.3583 36.25 35.2417 31.9833 35.2417 20C35.2417 18 35.1417 16.2667 34.925 14.75Z" fill="#2D5BD0"/>
</svg>
