<svg width="35" height="39" viewBox="0 0 35 39" fill="none" xmlns="http://www.w3.org/2000/svg">
<path d="M2.72427 15.7834C2.25542 15.7834 1.80577 15.5869 1.47423 15.2372C1.1427 14.8876 0.956451 14.4133 0.956451 13.9188C0.956451 13.4243 1.1427 12.95 1.47423 12.6003C1.80577 12.2506 2.25542 12.0542 2.72427 12.0542H16.8669C17.8046 12.0542 18.7039 11.6613 19.3669 10.962C20.03 10.2626 20.4025 9.31407 20.4025 8.32503C20.4025 7.336 20.03 6.38747 19.3669 5.68811C18.7039 4.98876 17.8046 4.59587 16.8669 4.59587C15.8946 4.59587 15.0106 5.00607 14.3742 5.69597C14.2133 5.87706 14.0189 6.02141 13.803 6.1201C13.5872 6.21878 13.3544 6.2697 13.1191 6.2697C12.8838 6.2697 12.651 6.21878 12.4351 6.1201C12.2192 6.02141 12.0248 5.87706 11.8639 5.69597C11.1745 4.96878 11.1745 3.77545 11.8639 3.04826C13.1544 1.70576 14.9222 0.866699 16.8669 0.866699C18.7423 0.866699 20.5409 1.65249 21.867 3.05119C23.1931 4.4499 23.9381 6.34696 23.9381 8.32503C23.9381 10.3031 23.1931 12.2002 21.867 13.5989C20.5409 14.9976 18.7423 15.7834 16.8669 15.7834H2.72427ZM29.2416 19.5125C29.7105 19.5125 30.1601 19.3161 30.4917 18.9664C30.8232 18.6167 31.0094 18.1425 31.0094 17.6479C31.0094 17.1534 30.8232 16.6792 30.4917 16.3295C30.1601 15.9798 29.7105 15.7834 29.2416 15.7834C28.7466 15.7834 28.3047 15.9885 27.9865 16.3241C27.8229 16.4969 27.6286 16.6341 27.4148 16.7277C27.2009 16.8212 26.9717 16.8694 26.7401 16.8694C26.5086 16.8694 26.2794 16.8212 26.0655 16.7277C25.8516 16.6341 25.6574 16.4969 25.4938 16.3241C24.8221 15.5969 24.8221 14.4222 25.4938 13.695C26.4485 12.6882 27.7743 12.0542 29.2416 12.0542C30.6482 12.0542 31.9971 12.6435 32.9917 13.6926C33.9863 14.7416 34.5451 16.1644 34.5451 17.6479C34.5451 19.1315 33.9863 20.5543 32.9917 21.6033C31.9971 22.6524 30.6482 23.2417 29.2416 23.2417H4.4921C4.02324 23.2417 3.57359 23.0453 3.24206 22.6956C2.91053 22.3459 2.72427 21.8716 2.72427 21.3771C2.72427 20.8826 2.91053 20.4083 3.24206 20.0587C3.57359 19.709 4.02324 19.5125 4.4921 19.5125H29.2416ZM27.4738 30.7H2.72427C2.25542 30.7 1.80577 30.5036 1.47423 30.1539C1.1427 29.8042 0.956451 29.33 0.956451 28.8354C0.956451 28.3409 1.1427 27.8667 1.47423 27.517C1.80577 27.1673 2.25542 26.9709 2.72427 26.9709H27.4738C28.8804 26.9709 30.2293 27.5602 31.2239 28.6092C32.2185 29.6583 32.7773 31.0811 32.7773 32.5646C32.7773 34.0482 32.2185 35.471 31.2239 36.52C30.2293 37.569 28.8804 38.1584 27.4738 38.1584C26.0065 38.1584 24.6806 37.5244 23.726 36.5175C23.0542 35.7903 23.0542 34.6157 23.726 33.8885C23.8896 33.7156 24.0838 33.5785 24.2977 33.4849C24.5115 33.3913 24.7408 33.3432 24.9723 33.3432C25.2038 33.3432 25.4331 33.3913 25.647 33.4849C25.8608 33.5785 26.0551 33.7156 26.2186 33.8885C26.5368 34.2241 26.9788 34.4292 27.4738 34.4292C27.9426 34.4292 28.3923 34.2328 28.7238 33.8831C29.0554 33.5334 29.2416 33.0591 29.2416 32.5646C29.2416 32.0701 29.0554 31.5958 28.7238 31.2462C28.3923 30.8965 27.9426 30.7 27.4738 30.7Z" fill="#2D5BD0"/>
</svg>
