<svg width="34" height="36" viewBox="0 0 34 36" fill="none" xmlns="http://www.w3.org/2000/svg">
<path d="M18.6495 3.57092L16.8817 9.04161L15.1139 3.57092C15.0186 3.27463 14.9916 2.95864 15.0351 2.64915C15.0787 2.33965 15.1915 2.04556 15.3643 1.79124C15.5372 1.53692 15.7649 1.3297 16.0288 1.18675C16.2927 1.0438 16.5851 0.969238 16.8817 0.969238C17.1784 0.969238 17.4707 1.0438 17.7346 1.18675C17.9985 1.3297 18.2263 1.53692 18.3991 1.79124C18.5719 2.04556 18.6848 2.33965 18.7283 2.64915C18.7719 2.95864 18.7449 3.27463 18.6495 3.57092ZM2.73913 16.623L7.92593 18.4876L2.73913 20.3522C2.45822 20.4527 2.15863 20.4812 1.86519 20.4353C1.57176 20.3893 1.29293 20.2703 1.05181 20.088C0.810687 19.9057 0.614221 19.6655 0.478689 19.3872C0.343156 19.1089 0.272461 18.8005 0.272461 18.4876C0.272461 18.1747 0.343156 17.8663 0.478689 17.588C0.614221 17.3097 0.810687 17.0694 1.05181 16.8872C1.29293 16.7049 1.57176 16.5859 1.86519 16.5399C2.15863 16.494 2.45822 16.5225 2.73913 16.623ZM15.1139 33.4043L16.8817 27.9336L18.6495 33.4043C18.7449 33.7006 18.7719 34.0165 18.7283 34.326C18.6848 34.6355 18.5719 34.9296 18.3991 35.1839C18.2263 35.4383 17.9985 35.6455 17.7346 35.7884C17.4707 35.9314 17.1784 36.0059 16.8817 36.0059C16.5851 36.0059 16.2927 35.9314 16.0288 35.7884C15.7649 35.6455 15.5372 35.4383 15.3643 35.1839C15.1915 34.9296 15.0787 34.6355 15.0351 34.326C14.9916 34.0165 15.0186 33.7006 15.1139 33.4043ZM31.0243 20.3484L25.8375 18.4839L31.0243 16.6193C31.3052 16.5187 31.6048 16.4903 31.8982 16.5362C32.1917 16.5821 32.4705 16.7012 32.7116 16.8834C32.9527 17.0657 33.1492 17.3059 33.2847 17.5843C33.4203 17.8626 33.491 18.171 33.491 18.4839C33.491 18.7967 33.4203 19.1051 33.2847 19.3834C33.1492 19.6618 32.9527 19.902 32.7116 20.0843C32.4705 20.2666 32.1917 20.3856 31.8982 20.4315C31.6048 20.4775 31.3052 20.449 31.0243 20.3484ZM8.13099 6.62138L10.5476 11.8068L5.63129 9.2579C5.36412 9.12002 5.13202 8.91686 4.95428 8.66531C4.77654 8.41377 4.65831 8.1211 4.6094 7.81165C4.5605 7.5022 4.58233 7.18491 4.6731 6.88616C4.76387 6.5874 4.92095 6.31582 5.13127 6.09399C5.34159 5.87215 5.59908 5.70648 5.88233 5.61075C6.16558 5.51501 6.4664 5.49198 6.7598 5.54356C7.05319 5.59514 7.33066 5.71985 7.56916 5.90731C7.80765 6.09478 8.00027 6.33959 8.13099 6.62138ZM5.63129 27.7154L10.5476 25.1665L8.13099 30.3519C8.00027 30.6337 7.80765 30.8785 7.56916 31.066C7.33066 31.2535 7.05319 31.3782 6.7598 31.4298C6.4664 31.4813 6.16558 31.4583 5.88233 31.3626C5.59908 31.2668 5.34159 31.1012 5.13127 30.8793C4.92095 30.6575 4.76387 30.3859 4.6731 30.0872C4.58233 29.7884 4.5605 29.4711 4.6094 29.1617C4.65831 28.8522 4.77654 28.5595 4.95428 28.308C5.13202 28.0565 5.36412 27.8533 5.63129 27.7154ZM25.6307 30.3519L23.2141 25.1665L28.1304 27.7154C28.3975 27.8533 28.6296 28.0565 28.8074 28.308C28.9851 28.5595 29.1034 28.8522 29.1523 29.1617C29.2012 29.4711 29.1793 29.7884 29.0886 30.0872C28.9978 30.3859 28.8407 30.6575 28.6304 30.8793C28.4201 31.1012 28.1626 31.2668 27.8793 31.3626C27.5961 31.4583 27.2953 31.4813 27.0019 31.4298C26.7085 31.3782 26.431 31.2535 26.1925 31.066C25.954 30.8785 25.7614 30.6337 25.6307 30.3519ZM28.1286 9.25417L23.2105 11.8049L25.6289 6.61765C25.7596 6.33586 25.9522 6.09105 26.1907 5.90359C26.4292 5.71612 26.7067 5.59141 27.0001 5.53983C27.2935 5.48825 27.5943 5.51128 27.8776 5.60702C28.1608 5.70275 28.4183 5.86843 28.6286 6.09026C28.839 6.31209 28.996 6.58367 29.0868 6.88243C29.1776 7.18118 29.1994 7.49847 29.1505 7.80792C29.1016 8.11737 28.9834 8.41004 28.8056 8.66158C28.6279 8.91313 28.3958 9.11629 28.1286 9.25417ZM16.8817 26.8782C12.4957 26.8782 8.92651 23.1136 8.92651 18.4876C8.92651 13.8616 12.4957 10.097 16.8817 10.097C21.2677 10.097 24.8369 13.8616 24.8369 18.4876C24.8369 23.1136 21.2677 26.8782 16.8817 26.8782ZM16.8817 13.8261C14.4439 13.8261 12.4622 15.9163 12.4622 18.4876C12.4622 21.0589 14.4439 23.149 16.8817 23.149C19.3195 23.149 21.3013 21.0589 21.3013 18.4876C21.3013 15.9163 19.3195 13.8261 16.8817 13.8261Z" fill="#2D5BD0"/>
</svg>
